Coordinates
version=1
nRows=13
nColumns=36
inDegrees=yes

Units are S.I. units (second, meters, Newtons, ...)
If the header above contains a line with 'inDegrees', this indicates whether rotational values are in degrees (yes) or radians (no).

endheader
time	pelvis_tilt	pelvis_list	pelvis_rotation	pelvis_tx	pelvis_ty	pelvis_tz	hip_flexion_r	hip_adduction_r	hip_rotation_r	knee_angle_r	knee_angle_r_beta	ankle_angle_r	subtalar_angle_r	mtp_angle_r	hip_flexion_l	hip_adduction_l	hip_rotation_l	knee_angle_l	knee_angle_l_beta	ankle_angle_l	subtalar_angle_l	mtp_angle_l	lumbar_extension	lumbar_bending	lumbar_rotation	arm_flex_r	arm_add_r	arm_rot_r	elbow_flex_r	pro_sup_r	arm_flex_l	arm_add_l	arm_rot_l	elbow_flex_l	pro_sup_l
      0.00000000	     -4.10949040	      2.88433760	      9.32898198	     -0.22440576	      0.92602375	     -0.22280432	     31.01668674	     -5.63747479	     -2.90450458	      2.92187727	      0.05099638	     -0.01722143	     -4.80569895	     -4.96037586	     -9.82287139	      4.68760770	      1.10236007	      5.16627161	      0.09016845	     17.97169635	     14.41364065	     -4.96037586	     -7.99610255	     -6.10995300	    -14.03066366	    -19.58766526	    -10.03142721	      7.81689844	     29.41225561	    103.66802601	     14.18844365	    -13.22872306	      2.46447530	     64.24869832	    100.55907620
      0.01000000	     -4.28156185	      2.84955509	      9.77478610	     -0.21061580	      0.92297372	     -0.22244984	     31.20049034	     -5.75955689	     -3.57879794	      2.29251377	      0.04001191	      0.38457267	     -5.06401281	     -4.97624135	    -10.25073680	      4.35289641	      1.41300596	      5.77569403	      0.10080488	     18.25210900	     14.43739244	     -4.97624135	     -7.74842802	     -6.01732495	    -14.30761213	    -20.05934729	    -10.10655077	      7.78535643	     29.22914805	    103.77707719	     14.74564003	    -13.22071810	      2.50502480	     64.88174547	    100.70860186
      0.02000000	     -4.35857390	      2.68270864	     10.27947053	     -0.19672194	      0.91999435	     -0.22216215	     31.38159985	     -5.79561680	     -4.82256369	      2.09912193	      0.03663659	      1.24046812	     -4.39879710	     -5.13299314	    -10.55796008	      3.80231160	      1.29629642	      6.81578156	      0.11895783	     19.39489960	     15.38454709	     -5.13299314	     -7.62856853	     -5.71191360	    -14.98457801	    -20.41982140	    -10.14105593	      6.82575384	     29.38793460	    104.60314581	     14.91309406	    -13.36097505	      2.07696173	     65.89923122	    101.54952149
      0.03000000	     -4.43560870	      2.58418029	     10.69460598	     -0.18260676	      0.91716922	     -0.22169030	     31.49407773	     -5.81261710	     -5.44571101	      2.14482041	      0.03743418	      1.48072577	     -4.72170202	     -5.14558522	    -11.02736100	      3.37074816	      1.65781756	      7.52060432	      0.13125931	     19.52336292	     15.32629218	     -5.14558522	     -7.46949093	     -5.54686044	    -15.15456380	    -20.85598051	    -10.17640555	      6.73760181	     29.25092003	    104.63532093	     15.41314380	    -13.25387546	      2.10069738	     66.51191081	    101.66625344
      0.04000000	     -4.51492470	      2.34744587	     11.16719694	     -0.16828385	      0.91441313	     -0.22120468	     31.70444210	     -5.72930683	     -6.43742415	      2.81681021	      0.04916261	      1.57355666	     -5.02599962	     -5.22182304	    -11.26221001	      2.76994314	      1.85935510	      8.66961470	      0.15131332	     20.20762316	     15.21910442	     -5.22182304	     -7.27803561	     -5.16351230	    -15.74151953	    -21.13549510	    -10.18844388	      5.82321417	     29.45093981	    104.76331773	     15.37695671	    -13.35734632	      1.71916914	     67.45858568	    102.04422419
      0.05000000	     -4.42069697	      2.12029805	     11.49522573	     -0.15361150	      0.91208357	     -0.22045317	     31.75729081	     -5.53433839	     -7.17929321	      3.95726705	      0.06906734	      1.43072089	     -5.68080046	     -5.24104399	    -11.74459242	      2.16888874	      2.10748415	      9.68551852	      0.16904419	     20.13214280	     14.95952910	     -5.24104399	     -7.23632977	     -4.80936170	    -15.88244074	    -21.36781558	    -10.19909343	      5.59359566	     29.36383042	    104.77678620	     15.57679395	    -13.25346747	      1.61703879	     68.01664401	    102.16170803
      0.06000000	     -4.55399726	      1.83162029	     11.81977193	     -0.13877369	      0.90964545	     -0.21954047	     32.08960825	     -5.29657861	     -7.64449652	      5.43795696	      0.09491025	      0.59593946	     -6.83532550	     -5.30826848	    -11.81146406	      1.57090835	      2.53908951	     11.03703245	      0.19263256	     20.10246603	     14.22011122	     -5.30826848	     -6.89438481	     -4.43371049	    -16.32998701	    -21.44782084	    -10.15377361	      4.71650748	     29.44087544	    104.80884734	     15.16911010	    -13.22592772	      0.97909366	     68.94316560	    102.41916632
      0.07000000	     -4.48572821	      1.51131656	     12.03447379	     -0.12361763	      0.90775780	     -0.21844272	     32.21734282	     -4.92647430	     -8.05549206	      7.12652844	      0.12438139	     -0.42929780	     -7.85511333	     -5.34353476	    -12.07010505	      0.91845933	      2.94242438	     12.40865405	      0.21657187	     19.60058153	     13.48264232	     -5.34353476	     -6.75085160	     -3.99771753	    -16.45385075	    -21.46011854	    -10.14409496	      4.33107267	     29.33897261	    104.82016914	     14.93454123	    -13.11957791	      0.70214052	     69.51963053	    102.54178967
      0.08000000	     -4.57462560	      1.19514497	     12.20402640	     -0.10834604	      0.90605128	     -0.21705296	     32.41860671	     -4.47291728	     -7.80513638	      8.64632646	      0.15090686	     -2.65611589	    -10.18432835	     -5.43621586	    -12.10015166	      0.37054476	      3.76745095	     13.87152892	      0.24210385	     18.63086276	     11.71860008	     -5.43621586	     -6.44118411	     -3.61667991	    -16.74478568	    -21.27044641	    -10.02578120	      3.61735488	     29.17963502	    104.87644933	     14.21461208	    -13.01179711	     -0.12363445	     70.41965443	    102.71911636
      0.09000000	     -4.41052599	      0.81097385	     12.29949212	     -0.09286666	      0.90500537	     -0.21567952	     32.40752805	     -3.93857753	     -8.01565949	     10.32398260	      0.18018749	     -4.00910149	    -10.88397740	     -5.45846467	    -12.17888010	     -0.32965058	      4.08274329	     15.68982595	      0.27383912	     17.55422860	     10.88242498	     -5.45846467	     -6.39526198	     -3.09025013	    -16.61041366	    -21.11038744	     -9.97418555	      3.45453934	     28.98824903	    104.87134083	     13.81873551	    -12.84453756	     -0.22656375	     70.77565753	    102.76124145
      0.10000000	     -4.52125353	      0.43078103	     12.27152973	     -0.07743610	      0.90418549	     -0.21387541	     32.53257840	     -3.21580744	     -7.06554253	     11.57385647	      0.20200190	     -7.11353198	    -13.99891381	     -5.55214741	    -11.93581798	     -0.79766683	      5.24735218	     17.52745018	      0.30591172	     15.67616594	      8.26818203	     -5.55214741	     -6.06226984	     -2.66905775	    -16.80687015	    -20.55336078	     -9.90142769	      3.04483280	     28.61064149	    104.87908126	     12.81222916	    -12.76129582	     -1.11679455	     71.50151757	    102.75054673
      0.11000000	     -4.49802560	     -0.01934973	     12.24992681	     -0.06198952	      0.90391274	     -0.21221310	     32.56962596	     -2.46763909	     -6.38943264	     13.03047857	      0.22742475	     -9.09062895	    -15.71047935	     -5.62638665	    -11.48857165	     -1.40620122	      5.88081928	     19.88559112	      0.34706904	     13.66969944	      6.42896744	     -5.62638665	     -5.88209785	     -2.11100581	    -16.73548802	    -20.03687165	     -9.85449280	      2.93062103	     28.25050074	    104.87077619	     11.99501510	    -12.53937681	     -1.51436820	     71.84400223	    102.69103265
      0.12000000	     -4.17531699	     -0.51325883	     12.12301582	     -0.04657701	      0.90443137	     -0.21048430	     32.30959835	     -1.60487850	     -5.97958651	     14.60706513	      0.25494138	     -9.83242447	    -16.45054888	     -5.64794849	    -11.06915789	     -2.12895732	      6.14233886	     22.67840495	      0.39581284	     11.61431145	      5.45910570	     -5.64794849	     -6.06127591	     -1.41465522	    -16.36437238	    -19.50661196	     -9.82343854	      2.85160677	     28.07121234	    104.84446173	     11.36862174	    -12.30627422	     -1.63965376	     71.93064373	    102.66013132
